<svg xmlns="http://www.w3.org/2000/svg" xmlns:xlink="http://www.w3.org/1999/xlink" width="500" zoomAndPan="magnify" viewBox="0 0 375 374.999991" height="500" preserveAspectRatio="xMidYMid meet" version="1.2"><g id="6df8acbbb4"><path style=" stroke:none;fill-rule:nonzero;fill:#000000;fill-opacity:1;" d="M 107.976562 149.84375 L 119.328125 132.898438 C 131.664062 136.601562 144.167969 135.121094 152.390625 124.097656 C 154.367188 121.382812 156.914062 115.789062 157.410156 112.5 C 157.65625 110.855469 156.996094 106.660156 157.410156 105.757812 C 158.3125 103.535156 174.765625 100.65625 178.054688 100.246094 C 185.703125 119.738281 210.871094 124.179688 224.359375 107.894531 C 228.390625 108.800781 241.46875 115.707031 242.703125 119.082031 C 243.195312 120.480469 240.894531 127.140625 240.644531 129.691406 C 240.480469 131.335938 241.386719 133.308594 240.894531 134.953125 C 239.578125 139.644531 224.523438 146.222656 220.496094 149.925781 C 206.511719 138.164062 185.785156 133.96875 168.757812 141.207031 C 117.847656 162.835938 134.707031 237.109375 186.9375 237.109375 C 222.46875 237.109375 246.484375 201 233.738281 168.265625 C 237.519531 166.210938 251.257812 154.035156 254.300781 154.203125 C 257.835938 154.449219 264.25 159.136719 269.515625 157.246094 C 271.242188 158.890625 275.273438 176.738281 274.121094 178.21875 C 254.957031 185.867188 251.421875 211.035156 267.210938 223.785156 C 267.953125 225.59375 258.328125 240.152344 256.109375 242.207031 C 254.628906 243.03125 250.597656 240.808594 248.625 240.480469 C 231.515625 237.683594 215.972656 252.40625 218.109375 269.515625 C 217.285156 271.324219 200.507812 274.367188 197.464844 274.78125 C 193.761719 268.527344 190.800781 263.839844 184.304688 260.222656 C 173.613281 254.382812 159.054688 256.683594 151.570312 266.554688 C 148.9375 267.707031 135.53125 257.835938 132.734375 255.863281 C 138.574219 240.234375 132.324219 223.125 115.378906 218.355469 C 113.242188 217.78125 106.90625 217.78125 106.167969 217.371094 C 104.191406 216.382812 102.878906 210.296875 102.300781 207.910156 C 101.972656 206.429688 100.328125 197.382812 100.65625 196.722656 C 120.230469 189.074219 124.425781 163.578125 108.058594 150.007812 Z M 107.976562 149.84375 "/><path style=" stroke:none;fill-rule:nonzero;fill:#ec1f51;fill-opacity:1;" d="M 215.394531 191.707031 C 209.636719 226.992188 156.421875 220.578125 159.546875 184.960938 C 162.917969 146.386719 221.480469 154.367188 215.394531 191.707031 Z M 215.394531 191.707031 "/></g></svg>