<svg xmlns="http://www.w3.org/2000/svg" xmlns:xlink="http://www.w3.org/1999/xlink" width="500" zoomAndPan="magnify" viewBox="0 0 375 374.999991" height="500" preserveAspectRatio="xMidYMid meet" version="1.2"><g id="dbd32248e1"><path style=" stroke:none;fill-rule:nonzero;fill:#000000;fill-opacity:1;" d="M 345.335938 188.832031 C 345.335938 175.984375 336.636719 166.808594 323.8125 166.808594 C 310.988281 166.808594 302.757812 177.050781 302.757812 188.140625 C 302.757812 199.230469 303.867188 196.472656 305.886719 199.832031 L 285.652344 199.832031 L 303.890625 167.875 L 267.214844 167.875 L 255.542969 193.320312 L 245.003906 167.875 L 234.621094 167.875 L 250.042969 205.40625 L 241.722656 223.296875 L 252.171875 223.296875 L 273.691406 176.519531 L 288.3125 176.519531 L 269.988281 208.472656 L 316.847656 208.472656 C 319.019531 209.164062 321.394531 209.542969 323.945312 209.542969 C 332.488281 209.542969 338.210938 206.785156 342.5625 200.609375 L 334.019531 196.5625 C 331.199219 199.320312 328.292969 200.542969 323.945312 200.542969 C 319.597656 200.542969 313.5625 197.1875 312.5625 191.140625 L 345.222656 191.140625 C 345.222656 190.230469 345.289062 189.761719 345.289062 188.851562 Z M 313.050781 183.097656 C 315.027344 177.984375 318.933594 175.453125 323.96875 175.453125 C 329.003906 175.453125 333.730469 178.363281 335.105469 183.097656 Z M 313.050781 183.097656 "/><path style=" stroke:none;fill-rule:nonzero;fill:#000000;fill-opacity:1;" d="M 224.703125 166.832031 C 218.601562 166.832031 214.851562 169.363281 211.125 174.097656 C 208.597656 169.207031 204.335938 166.832031 199.300781 166.832031 C 194.265625 166.832031 190.980469 168.429688 187.71875 171.453125 L 187.71875 181.785156 C 189.160156 178.007812 191.933594 176.140625 195.328125 176.140625 C 200.988281 176.140625 202.496094 180.964844 202.496094 188.832031 L 202.496094 208.476562 L 212.65625 208.476562 L 212.65625 188.453125 C 212.65625 180.117188 216.316406 176.140625 221.441406 176.140625 C 226.566406 176.140625 228.386719 179.429688 228.386719 186.074219 L 228.386719 208.476562 L 238.550781 208.476562 L 238.550781 184.695312 C 238.550781 179.339844 238.238281 174.917969 235.574219 171.542969 C 233.289062 168.628906 229.230469 166.808594 224.75 166.808594 Z M 224.703125 166.832031 "/><path style=" stroke:none;fill-rule:nonzero;fill:#000000;fill-opacity:1;" d="M 177.113281 172.320312 C 173.453125 168.652344 169.257812 166.808594 164.378906 166.808594 C 159.496094 166.808594 152.507812 169.917969 149.023438 175.140625 L 149.023438 167.898438 L 142.992188 167.898438 L 142.992188 152.917969 L 132.851562 152.917969 L 132.851562 167.898438 L 127.660156 167.898438 L 127.660156 173.585938 C 124.132812 169.320312 119.050781 166.832031 113.460938 166.832031 C 107.867188 166.832031 104.386719 168.675781 100.722656 172.339844 L 100.722656 167.898438 L 90.585938 167.898438 L 90.585938 188.851562 C 88.300781 187.097656 85.949219 185.5625 83.398438 184.695312 C 83.398438 184.695312 83.351562 184.652344 83.328125 184.628906 C 81.597656 183.117188 75.542969 184.140625 74.101562 183.964844 C 71.171875 195.339844 57.570312 200.453125 47.941406 193.496094 C 33.785156 183.273438 43.726562 159.785156 61.765625 163.875 C 67.800781 165.253906 72.613281 170.453125 74.101562 176.386719 C 75.917969 176.164062 81.289062 177.339844 82.554688 176.320312 C 82.996094 175.964844 83.128906 175.253906 83.507812 174.851562 C 84.0625 174.207031 85.992188 172.851562 86.125 172.363281 C 86.457031 171.1875 84.261719 166.761719 83.351562 165.742188 C 76.472656 167.542969 70.527344 161.386719 72.28125 154.609375 C 71.304688 154.074219 66.289062 151.628906 65.601562 152.050781 C 65.3125 152.230469 64.671875 153.496094 64.273438 153.898438 C 63.496094 154.695312 61.71875 155.742188 60.632812 156.074219 C 56.238281 157.476562 52.558594 155.429688 49.9375 151.984375 L 43.570312 154.363281 C 45.347656 161.273438 39.222656 167.363281 32.433594 165.609375 C 32.210938 165.71875 30.878906 168.496094 30.679688 168.964844 C 30.371094 169.742188 29.550781 171.628906 29.882812 172.296875 C 29.992188 172.519531 31.722656 173.761719 32.1875 174.363281 C 35.828125 178.984375 34.207031 184.851562 29.550781 187.964844 C 29.925781 189.050781 31.632812 194.363281 32.566406 194.5625 C 36.515625 193.363281 40.910156 195.5625 42.683594 199.253906 C 43.75 201.496094 43.636719 203.363281 43.414062 205.785156 C 44.324219 206.273438 49.472656 208.742188 50.050781 208.40625 C 52.824219 203.339844 59.921875 202.386719 64.003906 206.496094 C 64.472656 206.984375 65.136719 208.386719 65.691406 208.453125 C 66.691406 208.363281 72.148438 206.273438 72.304688 205.628906 C 70.816406 200.253906 75.917969 193.519531 82.085938 193.917969 C 83.308594 194.585938 84.59375 195.542969 85.96875 196.652344 C 86.792969 197.296875 87.613281 198.007812 88.476562 198.742188 C 93.890625 203.296875 100.546875 208.898438 109.910156 209.40625 C 110.285156 209.40625 110.664062 209.453125 111.042969 209.453125 C 111.730469 209.542969 112.460938 209.5625 113.195312 209.5625 C 123.488281 209.5625 132.585938 200.695312 132.585938 188.230469 C 132.585938 175.761719 131.519531 179.875 129.699219 176.609375 L 132.828125 176.609375 L 132.828125 208.476562 L 142.96875 208.476562 L 142.96875 176.609375 L 148.117188 176.609375 C 146.316406 179.875 145.277344 183.808594 145.277344 188.230469 C 145.277344 200.695312 154.285156 209.5625 164.578125 209.5625 C 174.871094 209.5625 173.496094 207.71875 177.089844 204.207031 L 177.089844 208.496094 L 187.230469 208.496094 L 187.230469 167.898438 L 177.089844 167.898438 L 177.089844 172.339844 Z M 111.375 200.230469 C 105.117188 200.230469 100.238281 195.40625 100.238281 188.074219 C 100.238281 180.742188 104.894531 176.140625 111.375 176.140625 C 117.851562 176.140625 122.355469 181.496094 122.355469 188.140625 C 122.355469 194.785156 117.699219 200.207031 111.375 200.207031 Z M 166.417969 200.230469 C 160.074219 200.230469 155.503906 195.117188 155.503906 188.164062 C 155.503906 181.207031 159.695312 176.164062 166.417969 176.164062 C 173.140625 176.164062 177.558594 180.984375 177.558594 188.097656 C 177.558594 195.207031 172.675781 200.253906 166.417969 200.253906 Z M 166.417969 200.230469 "/><path style=" stroke:none;fill-rule:nonzero;fill:#000000;fill-opacity:1;" d="M 90.539062 223.320312 L 100.679688 223.320312 L 100.679688 209.5625 C 96.796875 208.050781 93.46875 205.71875 90.539062 203.386719 L 90.539062 223.339844 Z M 90.539062 223.320312 "/><path style=" stroke:none;fill-rule:nonzero;fill:#ec1f51;fill-opacity:1;" d="M 50.671875 174.007812 C 42.839844 183.074219 56.0625 195.253906 64.515625 186.785156 C 73.457031 177.832031 59.144531 164.1875 50.671875 174.007812 Z M 50.671875 174.007812 "/></g></svg>